PathFileType	3	(X/Y/Z)	static.trc																																																																												
DataRate	CameraRate	NumFrames	NumMarkers	Units	OrigDataRate	OrigDataStartFrame	OrigNumFrames																																																																								
100	100	8	26	mm	100	98	260																																																																								
Frame#	Time	RAcromium			LAcromium			C7			Clavicle			VSacral			RASIS			LASIS			RHip			LHip			RKneeLat			RKneeMed			LKneeMed			LKneeLat			LShankFront			RShankFront			RAnkleLat			RAnkleMed			LAnkleMed			LAnkleLat			LToeLat			LToeTip			RToeTip			RToeLat			RHeel			LHeel			T10		
		X1	Y1	Z1	X2	Y2	Z2	X3	Y3	Z3	X4	Y4	Z4	X5	Y5	Z5	X6	Y6	Z6	X7	Y7	Z7	X8	Y8	Z8	X9	Y9	Z9	X10	Y10	Z10	X11	Y11	Z11	X12	Y12	Z12	X13	Y13	Z13	X14	Y14	Z14	X15	Y15	Z15	X16	Y16	Z16	X17	Y17	Z17	X18	Y18	Z18	X19	Y19	Z19	X20	Y20	Z20	X21	Y21	Z21	X22	Y22	Z22	X23	Y23	Z23	X24	Y24	Z24	X25	Y25	Z25	X26	Y26	Z26
98	0.97	883.24573	1559.1927	-449.19608	869.86426	1561.5081	-698.08014	841.20697	1583.3468	-568.11169	993.63867	1480.9233	-583.08856	790.86224	1086.1449	-555.82245	966.56189	1083.8512	-430.49664	973.21643	1078.1976	-698.83319	898.04236	993.79138	-390.64114	892.39423	985.3739	-744.70453	905.21533	533.38202	-412.2482	880.43024	521.09674	-542.93408	899.97229	537.54077	-605.04041	899.49023	546.60376	-725.01831	926.43372	438.85184	-688.37512	947.85828	449.07346	-465.64304	832.9754	82.830536	-420.68488	854.5755	92.46386	-504.27103	853.72046	96.467056	-626.60974	819.72559	74.439163	-704.85938	973.26752	19.414276	-745.29517	1042.7092	23.882944	-679.95575	1044.4335	21.456984	-457.13989	972.48907	19.964241	-379.91989	747.18738	10.150099	-466.21545	747.93719	9.0146942	-650.75604	782.80457	1291.391	-564.51007
99	0.98	883.27911	1559.2135	-449.28436	869.9054	1561.5142	-698.16882	841.23676	1583.358	-568.20978	993.68512	1480.9001	-583.16626	790.80566	1086.1718	-555.86334	966.62463	1083.8721	-430.5267	973.22906	1078.2131	-698.80176	897.96826	993.79785	-390.7088	892.36548	985.3576	-744.72052	905.17621	533.40857	-412.27356	880.33966	521.12646	-542.95319	900.00739	537.50977	-605.02148	899.47961	546.54181	-725.02728	926.38367	438.83444	-688.4082	947.78845	449.08432	-465.70972	833.10168	82.8396	-420.55258	854.57758	92.399208	-504.29059	853.73975	96.497345	-626.6626	819.70593	74.459969	-704.83057	973.23224	19.503536	-745.26459	1042.9691	24.151369	-679.81079	1044.41	21.49757	-457.12531	972.53693	19.932945	-379.90549	747.19025	10.116383	-466.25821	747.94409	9.0144272	-650.75647	782.83459	1291.3998	-564.59161
100	0.99	883.33795	1559.2208	-449.40497	869.97345	1561.5121	-698.25342	841.29248	1583.3625	-568.31348	993.71631	1480.9108	-583.26074	790.76367	1086.2065	-555.87451	966.53589	1083.8629	-430.61609	973.07153	1078.1707	-698.95776	897.92969	993.81891	-390.72641	892.27856	985.3374	-744.73877	905.20618	533.4231	-412.27789	880.31927	521.13855	-542.93915	900.02289	537.56567	-604.99249	899.43054	546.56036	-725.08917	926.31909	438.87665	-688.49365	947.78564	449.08273	-465.72238	832.98163	82.857132	-420.66776	854.70984	92.267876	-504.27078	853.96869	96.683144	-626.54065	819.65918	74.495277	-704.87195	972.92688	19.403112	-745.46252	1042.9562	24.135405	-679.78827	1044.475	21.323282	-457.23746	972.53601	19.927456	-379.95807	747.15698	10.150253	-466.27359	747.95483	9.0186644	-650.758	782.8512	1291.4291	-564.66376
101	1	883.37122	1559.2542	-449.50516	870.00867	1561.5154	-698.3479	841.33673	1583.3774	-568.4093	993.73511	1480.8751	-583.33057	790.73718	1086.2168	-555.88916	966.41571	1083.802	-430.67484	973.08685	1078.2155	-698.97009	897.87866	993.80847	-390.78799	892.20184	985.36652	-744.79053	905.17432	533.41553	-412.2901	880.47693	521.08936	-542.91095	900.05219	537.58112	-605.06714	899.3288	546.61243	-725.1106	926.31812	438.8446	-688.50067	947.79584	449.09692	-465.6778	833.08679	82.867836	-420.52777	854.61487	92.449066	-504.26376	853.83447	96.449356	-626.5224	819.71899	74.438835	-704.85272	973.23871	19.415991	-745.28522	1042.9386	24.188095	-679.79834	1044.4297	21.515347	-457.09052	972.4892	19.939781	-379.91379	747.1701	10.190557	-466.1843	747.93793	9.0257244	-650.77875	782.80231	1291.4603	-564.73322
102	1.01	883.40668	1559.2793	-449.59622	870.06183	1561.5107	-698.43726	841.37439	1583.3875	-568.50562	993.76959	1480.8683	-583.4082	790.67102	1086.2561	-555.91943	966.41718	1083.8334	-430.69257	973.03461	1078.1476	-698.98315	897.83325	993.84692	-390.81281	892.15533	985.38196	-744.88818	905.17761	533.4129	-412.28583	880.19977	521.18073	-542.94983	899.9577	537.52307	-605.04401	899.323	546.57648	-725.14636	926.27899	438.8472	-688.49823	947.71863	449.07962	-465.74704	833.09082	82.866219	-420.54184	854.6499	92.369003	-504.26263	853.69409	96.512108	-626.61957	819.68268	74.447968	-704.8938	973.28589	19.422705	-745.23755	1042.894	24.160828	-679.75818	1044.3809	21.443571	-457.16394	972.57806	19.984097	-379.93759	747.16516	10.114174	-466.2742	747.97333	9.0067348	-650.78204	782.81757	1291.5015	-564.78448
103	1.02	883.44989	1559.2955	-449.67468	870.07886	1561.5222	-698.52832	841.40546	1583.4198	-568.60602	993.78729	1480.8669	-583.49347	790.61517	1086.271	-555.9527	966.38501	1083.8306	-430.67395	973.00299	1078.2122	-698.97693	897.78668	993.8598	-390.83099	892.07812	985.39783	-744.91431	905.18042	533.41467	-412.30475	880.16467	521.18524	-542.98987	900.11646	537.6059	-604.96405	899.30933	546.59271	-725.14282	926.26013	438.8623	-688.55292	947.70966	449.09436	-465.74847	832.98676	82.851257	-420.66391	854.61426	92.472351	-504.24646	853.74744	96.453964	-626.64343	819.67316	74.492447	-704.85614	973.23529	19.417824	-745.34235	1042.7887	23.892372	-679.95062	1044.4591	21.529993	-457.06366	972.54187	19.933767	-379.8999	747.17578	10.120138	-466.26025	747.93896	9.0134497	-650.77643	782.86688	1291.4952	-564.89783
104	1.03	883.46881	1559.3268	-449.75494	870.08484	1561.5337	-698.60687	841.43988	1583.4347	-568.68787	993.79138	1480.8584	-583.59338	790.57373	1086.2716	-555.98962	966.40247	1083.8342	-430.698	972.90332	1078.1543	-699.07745	897.7193	993.83862	-390.87503	892.08545	985.3728	-744.91937	905.13165	533.42188	-412.33273	880.15112	521.14569	-543.04126	899.78693	537.44623	-605.20575	899.25409	546.58722	-725.20184	926.26746	438.84808	-688.55829	947.69031	449.09695	-465.75314	833.13025	82.868866	-420.49182	854.69275	92.283028	-504.23111	854.01794	96.639	-626.49707	819.69031	74.459236	-704.88495	972.93115	19.413145	-745.45868	1042.8956	24.161064	-679.77985	1044.3496	21.40976	-457.18979	972.54755	19.883635	-379.89328	747.14673	10.135385	-466.27463	747.93939	9.0431623	-650.77655	782.82806	1291.5303	-564.9563
105	1.04	883.51154	1559.3524	-449.86142	870.11487	1561.5463	-698.70453	841.45844	1583.4418	-568.77625	993.80194	1480.845	-583.68707	790.52362	1086.2938	-556.01544	966.2699	1083.7784	-430.755	972.91235	1078.1952	-698.99005	897.69092	993.84094	-390.93448	892.021	985.36829	-744.96826	905.15265	533.4624	-412.37961	880.35901	521.09546	-542.98639	899.92389	537.56604	-605.138	899.30432	546.53912	-725.20801	926.24658	438.88571	-688.56268	947.71997	449.11414	-465.77841	833.04724	82.881935	-420.54944	854.69696	92.270546	-504.21619	853.71466	96.511879	-626.66223	819.66656	74.467155	-704.89648	973.24707	19.41341	-745.29138	1042.9202	24.158543	-679.80286	1044.4108	21.490068	-457.12103	972.58759	19.938688	-379.95218	747.16229	10.133216	-466.25925	747.91638	9.0430613	-650.76624	782.80005	1291.5648	-564.98395
